<mxfile host="app.diagrams.net" modified="2022-07-15T14:04:35.065Z" agent="5.0 (Windows NT 10.0; Win64; x64) AppleWebKit/537.36 (KHTML, like Gecko) Chrome/102.0.5005.115 Safari/537.36 OPR/88.0.4412.75" etag="nSRAqS6Hjq5S6B6okr1p" version="20.1.1" type="github">
  <diagram id="R2lEEEUBdFMjLlhIrx00" name="Page-1">
    <mxGraphModel dx="1381" dy="1864" grid="1" gridSize="10" guides="1" tooltips="1" connect="1" arrows="1" fold="1" page="1" pageScale="1" pageWidth="850" pageHeight="1100" math="0" shadow="0" extFonts="Permanent Marker^https://fonts.googleapis.com/css?family=Permanent+Marker">
      <root>
        <mxCell id="0" />
        <mxCell id="1" parent="0" />
        <mxCell id="u46jIXAhvoMnPUE3ka4g-5" style="edgeStyle=orthogonalEdgeStyle;rounded=0;orthogonalLoop=1;jettySize=auto;html=1;entryX=0;entryY=0.5;entryDx=0;entryDy=0;startArrow=ERmany;startFill=0;" edge="1" parent="1" source="V23KG6YPVm5Pd8DgJK21-1" target="V23KG6YPVm5Pd8DgJK21-33">
          <mxGeometry relative="1" as="geometry" />
        </mxCell>
        <mxCell id="u46jIXAhvoMnPUE3ka4g-14" style="edgeStyle=orthogonalEdgeStyle;rounded=0;orthogonalLoop=1;jettySize=auto;html=1;entryX=0.5;entryY=0;entryDx=0;entryDy=0;startArrow=ERmandOne;startFill=0;" edge="1" parent="1" source="V23KG6YPVm5Pd8DgJK21-1" target="u46jIXAhvoMnPUE3ka4g-13">
          <mxGeometry relative="1" as="geometry" />
        </mxCell>
        <mxCell id="u46jIXAhvoMnPUE3ka4g-40" value="" style="edgeStyle=orthogonalEdgeStyle;rounded=0;orthogonalLoop=1;jettySize=auto;html=1;startArrow=baseDash;startFill=0;entryX=1;entryY=0.5;entryDx=0;entryDy=0;exitX=0.5;exitY=0;exitDx=0;exitDy=0;" edge="1" parent="1" source="V23KG6YPVm5Pd8DgJK21-1" target="u46jIXAhvoMnPUE3ka4g-39">
          <mxGeometry relative="1" as="geometry" />
        </mxCell>
        <mxCell id="V23KG6YPVm5Pd8DgJK21-1" value="Aluno" style="rounded=0;whiteSpace=wrap;html=1;" parent="1" vertex="1">
          <mxGeometry x="152.5" y="370" width="100" height="40" as="geometry" />
        </mxCell>
        <mxCell id="u46jIXAhvoMnPUE3ka4g-7" style="edgeStyle=orthogonalEdgeStyle;rounded=0;orthogonalLoop=1;jettySize=auto;html=1;startArrow=ERmandOne;startFill=0;" edge="1" parent="1" source="V23KG6YPVm5Pd8DgJK21-2" target="V23KG6YPVm5Pd8DgJK21-35">
          <mxGeometry relative="1" as="geometry" />
        </mxCell>
        <mxCell id="V23KG6YPVm5Pd8DgJK21-2" value="Curso" style="whiteSpace=wrap;html=1;align=center;" parent="1" vertex="1">
          <mxGeometry x="100" y="87.5" width="100" height="40" as="geometry" />
        </mxCell>
        <mxCell id="u46jIXAhvoMnPUE3ka4g-8" style="edgeStyle=orthogonalEdgeStyle;rounded=0;orthogonalLoop=1;jettySize=auto;html=1;entryX=1;entryY=0.5;entryDx=0;entryDy=0;startArrow=ERmany;startFill=0;" edge="1" parent="1" source="V23KG6YPVm5Pd8DgJK21-4" target="V23KG6YPVm5Pd8DgJK21-35">
          <mxGeometry relative="1" as="geometry" />
        </mxCell>
        <mxCell id="u46jIXAhvoMnPUE3ka4g-9" style="edgeStyle=orthogonalEdgeStyle;rounded=0;orthogonalLoop=1;jettySize=auto;html=1;startArrow=ERmandOne;startFill=0;" edge="1" parent="1" source="V23KG6YPVm5Pd8DgJK21-4" target="V23KG6YPVm5Pd8DgJK21-54">
          <mxGeometry relative="1" as="geometry" />
        </mxCell>
        <mxCell id="V23KG6YPVm5Pd8DgJK21-4" value="Professores" style="whiteSpace=wrap;html=1;align=center;" parent="1" vertex="1">
          <mxGeometry x="526" y="87.5" width="100" height="40" as="geometry" />
        </mxCell>
        <mxCell id="u46jIXAhvoMnPUE3ka4g-6" style="edgeStyle=orthogonalEdgeStyle;rounded=0;orthogonalLoop=1;jettySize=auto;html=1;entryX=1;entryY=0.5;entryDx=0;entryDy=0;startArrow=ERmany;startFill=0;" edge="1" parent="1" source="V23KG6YPVm5Pd8DgJK21-5" target="V23KG6YPVm5Pd8DgJK21-33">
          <mxGeometry relative="1" as="geometry" />
        </mxCell>
        <mxCell id="u46jIXAhvoMnPUE3ka4g-10" style="edgeStyle=orthogonalEdgeStyle;rounded=0;orthogonalLoop=1;jettySize=auto;html=1;entryX=0.5;entryY=1;entryDx=0;entryDy=0;startArrow=ERmandOne;startFill=0;" edge="1" parent="1" source="V23KG6YPVm5Pd8DgJK21-5" target="V23KG6YPVm5Pd8DgJK21-54">
          <mxGeometry relative="1" as="geometry" />
        </mxCell>
        <mxCell id="V23KG6YPVm5Pd8DgJK21-5" value="Turma" style="whiteSpace=wrap;html=1;align=center;" parent="1" vertex="1">
          <mxGeometry x="525" y="370" width="100" height="40" as="geometry" />
        </mxCell>
        <mxCell id="V23KG6YPVm5Pd8DgJK21-7" value="idiomas" style="ellipse;whiteSpace=wrap;html=1;align=center;" parent="1" vertex="1">
          <mxGeometry x="663" y="375" width="70" height="30" as="geometry" />
        </mxCell>
        <mxCell id="V23KG6YPVm5Pd8DgJK21-17" value="" style="endArrow=none;html=1;rounded=0;exitX=1;exitY=0.5;exitDx=0;exitDy=0;entryX=0;entryY=0.5;entryDx=0;entryDy=0;" parent="1" source="V23KG6YPVm5Pd8DgJK21-5" target="V23KG6YPVm5Pd8DgJK21-7" edge="1">
          <mxGeometry width="50" height="50" relative="1" as="geometry">
            <mxPoint x="630" y="190" as="sourcePoint" />
            <mxPoint x="690" y="190" as="targetPoint" />
            <Array as="points">
              <mxPoint x="640" y="390" />
            </Array>
          </mxGeometry>
        </mxCell>
        <mxCell id="V23KG6YPVm5Pd8DgJK21-27" value="SalÃ¡rio" style="ellipse;whiteSpace=wrap;html=1;align=center;" parent="1" vertex="1">
          <mxGeometry x="650" y="20" width="70" height="30" as="geometry" />
        </mxCell>
        <mxCell id="V23KG6YPVm5Pd8DgJK21-28" value="" style="endArrow=none;html=1;rounded=0;exitX=0.75;exitY=0;exitDx=0;exitDy=0;entryX=0;entryY=0.5;entryDx=0;entryDy=0;" parent="1" source="V23KG6YPVm5Pd8DgJK21-4" target="V23KG6YPVm5Pd8DgJK21-27" edge="1">
          <mxGeometry width="50" height="50" relative="1" as="geometry">
            <mxPoint x="290" y="455" as="sourcePoint" />
            <mxPoint x="340" y="505" as="targetPoint" />
            <Array as="points">
              <mxPoint x="601" y="35" />
            </Array>
          </mxGeometry>
        </mxCell>
        <mxCell id="V23KG6YPVm5Pd8DgJK21-30" value="" style="endArrow=none;html=1;rounded=0;entryX=0;entryY=0.5;entryDx=0;entryDy=0;startArrow=none;" parent="1" edge="1">
          <mxGeometry width="50" height="50" relative="1" as="geometry">
            <mxPoint x="626" y="90" as="sourcePoint" />
            <mxPoint x="650" y="72.5" as="targetPoint" />
            <Array as="points">
              <mxPoint x="626" y="73" />
            </Array>
          </mxGeometry>
        </mxCell>
        <mxCell id="V23KG6YPVm5Pd8DgJK21-33" value="possui" style="shape=rhombus;perimeter=rhombusPerimeter;whiteSpace=wrap;html=1;align=center;" parent="1" vertex="1">
          <mxGeometry x="340" y="367.5" width="105" height="45" as="geometry" />
        </mxCell>
        <mxCell id="V23KG6YPVm5Pd8DgJK21-35" value="contrata" style="shape=rhombus;perimeter=rhombusPerimeter;whiteSpace=wrap;html=1;align=center;" parent="1" vertex="1">
          <mxGeometry x="302.5" y="85" width="105" height="45" as="geometry" />
        </mxCell>
        <mxCell id="u46jIXAhvoMnPUE3ka4g-1" value="nome" style="ellipse;whiteSpace=wrap;html=1;align=center;" vertex="1" parent="1">
          <mxGeometry x="115" y="20" width="70" height="30" as="geometry" />
        </mxCell>
        <mxCell id="u46jIXAhvoMnPUE3ka4g-2" value="" style="endArrow=none;html=1;rounded=0;exitX=0.5;exitY=0;exitDx=0;exitDy=0;entryX=0.5;entryY=1;entryDx=0;entryDy=0;" edge="1" parent="1" target="u46jIXAhvoMnPUE3ka4g-1" source="V23KG6YPVm5Pd8DgJK21-2">
          <mxGeometry width="50" height="50" relative="1" as="geometry">
            <mxPoint x="235" y="120" as="sourcePoint" />
            <mxPoint x="250" y="80" as="targetPoint" />
          </mxGeometry>
        </mxCell>
        <mxCell id="V23KG6YPVm5Pd8DgJK21-54" value="leciona" style="shape=rhombus;perimeter=rhombusPerimeter;whiteSpace=wrap;html=1;align=center;" parent="1" vertex="1">
          <mxGeometry x="523" y="219" width="105" height="45" as="geometry" />
        </mxCell>
        <mxCell id="u46jIXAhvoMnPUE3ka4g-13" value="possui" style="shape=rhombus;perimeter=rhombusPerimeter;whiteSpace=wrap;html=1;align=center;" vertex="1" parent="1">
          <mxGeometry x="150.5" y="505" width="105" height="45" as="geometry" />
        </mxCell>
        <mxCell id="u46jIXAhvoMnPUE3ka4g-19" style="edgeStyle=orthogonalEdgeStyle;rounded=0;orthogonalLoop=1;jettySize=auto;html=1;entryX=0.5;entryY=1;entryDx=0;entryDy=0;startArrow=ERmandOne;startFill=0;" edge="1" parent="1" source="u46jIXAhvoMnPUE3ka4g-16" target="u46jIXAhvoMnPUE3ka4g-13">
          <mxGeometry relative="1" as="geometry" />
        </mxCell>
        <mxCell id="u46jIXAhvoMnPUE3ka4g-20" style="edgeStyle=orthogonalEdgeStyle;rounded=0;orthogonalLoop=1;jettySize=auto;html=1;startArrow=baseDash;startFill=0;exitX=0.75;exitY=1;exitDx=0;exitDy=0;entryX=1;entryY=0.5;entryDx=0;entryDy=0;" edge="1" parent="1" source="u46jIXAhvoMnPUE3ka4g-16" target="u46jIXAhvoMnPUE3ka4g-27">
          <mxGeometry relative="1" as="geometry">
            <mxPoint x="150" y="820" as="targetPoint" />
            <Array as="points">
              <mxPoint x="228" y="820" />
            </Array>
          </mxGeometry>
        </mxCell>
        <mxCell id="u46jIXAhvoMnPUE3ka4g-37" value="" style="edgeStyle=orthogonalEdgeStyle;rounded=0;orthogonalLoop=1;jettySize=auto;html=1;startArrow=baseDash;startFill=0;exitX=1;exitY=1;exitDx=0;exitDy=0;entryX=1;entryY=0.5;entryDx=0;entryDy=0;" edge="1" parent="1" source="u46jIXAhvoMnPUE3ka4g-16" target="u46jIXAhvoMnPUE3ka4g-36">
          <mxGeometry relative="1" as="geometry">
            <mxPoint x="150" y="855" as="targetPoint" />
            <Array as="points">
              <mxPoint x="253" y="855" />
            </Array>
          </mxGeometry>
        </mxCell>
        <mxCell id="u46jIXAhvoMnPUE3ka4g-16" value="Notas" style="rounded=0;whiteSpace=wrap;html=1;" vertex="1" parent="1">
          <mxGeometry x="152.5" y="630" width="100" height="40" as="geometry" />
        </mxCell>
        <mxCell id="u46jIXAhvoMnPUE3ka4g-21" value="id_notas" style="ellipse;whiteSpace=wrap;html=1;align=center;" vertex="1" parent="1">
          <mxGeometry x="63" y="700" width="70" height="30" as="geometry" />
        </mxCell>
        <mxCell id="u46jIXAhvoMnPUE3ka4g-22" style="edgeStyle=orthogonalEdgeStyle;rounded=0;orthogonalLoop=1;jettySize=auto;html=1;entryX=1;entryY=0.5;entryDx=0;entryDy=0;startArrow=baseDash;startFill=0;exitX=0.5;exitY=1;exitDx=0;exitDy=0;" edge="1" parent="1" target="u46jIXAhvoMnPUE3ka4g-25" source="u46jIXAhvoMnPUE3ka4g-16">
          <mxGeometry relative="1" as="geometry">
            <mxPoint x="255.5" y="685" as="sourcePoint" />
          </mxGeometry>
        </mxCell>
        <mxCell id="u46jIXAhvoMnPUE3ka4g-23" value="av.1" style="ellipse;whiteSpace=wrap;html=1;align=center;" vertex="1" parent="1">
          <mxGeometry x="61" y="734" width="70" height="30" as="geometry" />
        </mxCell>
        <mxCell id="u46jIXAhvoMnPUE3ka4g-24" style="edgeStyle=orthogonalEdgeStyle;rounded=0;orthogonalLoop=1;jettySize=auto;html=1;entryX=1;entryY=0.5;entryDx=0;entryDy=0;startArrow=baseDash;startFill=0;exitX=0.25;exitY=1;exitDx=0;exitDy=0;" edge="1" parent="1" target="u46jIXAhvoMnPUE3ka4g-23" source="u46jIXAhvoMnPUE3ka4g-16">
          <mxGeometry relative="1" as="geometry">
            <mxPoint x="255.5" y="725" as="sourcePoint" />
          </mxGeometry>
        </mxCell>
        <mxCell id="u46jIXAhvoMnPUE3ka4g-25" value="av.2" style="ellipse;whiteSpace=wrap;html=1;align=center;" vertex="1" parent="1">
          <mxGeometry x="61" y="769" width="70" height="30" as="geometry" />
        </mxCell>
        <mxCell id="u46jIXAhvoMnPUE3ka4g-26" style="edgeStyle=orthogonalEdgeStyle;rounded=0;orthogonalLoop=1;jettySize=auto;html=1;entryX=1;entryY=0.5;entryDx=0;entryDy=0;startArrow=baseDash;startFill=0;exitX=0;exitY=1;exitDx=0;exitDy=0;" edge="1" parent="1" target="u46jIXAhvoMnPUE3ka4g-21" source="u46jIXAhvoMnPUE3ka4g-16">
          <mxGeometry relative="1" as="geometry">
            <mxPoint x="254.5" y="759" as="sourcePoint" />
            <Array as="points">
              <mxPoint x="153" y="715" />
            </Array>
          </mxGeometry>
        </mxCell>
        <mxCell id="u46jIXAhvoMnPUE3ka4g-27" value="av.3" style="ellipse;whiteSpace=wrap;html=1;align=center;" vertex="1" parent="1">
          <mxGeometry x="60" y="805" width="70" height="30" as="geometry" />
        </mxCell>
        <mxCell id="u46jIXAhvoMnPUE3ka4g-28" value="&lt;span style=&quot;border-bottom: 1px dotted&quot;&gt;matricula&lt;/span&gt;" style="ellipse;whiteSpace=wrap;html=1;align=center;" vertex="1" parent="1">
          <mxGeometry x="40" y="337.5" width="70" height="30" as="geometry" />
        </mxCell>
        <mxCell id="u46jIXAhvoMnPUE3ka4g-29" value="" style="endArrow=none;html=1;rounded=0;entryX=1;entryY=0.5;entryDx=0;entryDy=0;" edge="1" parent="1" target="u46jIXAhvoMnPUE3ka4g-31">
          <mxGeometry width="50" height="50" relative="1" as="geometry">
            <mxPoint x="150" y="390" as="sourcePoint" />
            <mxPoint x="35" y="390" as="targetPoint" />
            <Array as="points" />
          </mxGeometry>
        </mxCell>
        <mxCell id="u46jIXAhvoMnPUE3ka4g-30" value="" style="endArrow=none;html=1;rounded=0;exitX=0.25;exitY=0;exitDx=0;exitDy=0;entryX=1;entryY=0.5;entryDx=0;entryDy=0;" edge="1" parent="1" target="u46jIXAhvoMnPUE3ka4g-28" source="V23KG6YPVm5Pd8DgJK21-1">
          <mxGeometry width="50" height="50" relative="1" as="geometry">
            <mxPoint x="10" y="345" as="sourcePoint" />
            <mxPoint x="90" y="295" as="targetPoint" />
            <Array as="points">
              <mxPoint x="178" y="353" />
            </Array>
          </mxGeometry>
        </mxCell>
        <mxCell id="u46jIXAhvoMnPUE3ka4g-31" value="endereÃ§o" style="ellipse;shape=doubleEllipse;margin=3;whiteSpace=wrap;html=1;align=center;" vertex="1" parent="1">
          <mxGeometry x="35" y="375" width="80" height="30" as="geometry" />
        </mxCell>
        <mxCell id="u46jIXAhvoMnPUE3ka4g-36" value="mÃ©dia" style="ellipse;whiteSpace=wrap;html=1;rounded=0;" vertex="1" parent="1">
          <mxGeometry x="62" y="840" width="67.5" height="30" as="geometry" />
        </mxCell>
        <mxCell id="u46jIXAhvoMnPUE3ka4g-39" value="nome" style="ellipse;whiteSpace=wrap;html=1;rounded=0;" vertex="1" parent="1">
          <mxGeometry x="40" y="300" width="70" height="30" as="geometry" />
        </mxCell>
        <mxCell id="u46jIXAhvoMnPUE3ka4g-46" value="" style="endArrow=none;html=1;rounded=0;exitX=0.5;exitY=0;exitDx=0;exitDy=0;entryX=0;entryY=0.5;entryDx=0;entryDy=0;" edge="1" parent="1" target="u46jIXAhvoMnPUE3ka4g-47" source="V23KG6YPVm5Pd8DgJK21-4">
          <mxGeometry width="50" height="50" relative="1" as="geometry">
            <mxPoint x="601" y="50" as="sourcePoint" />
            <mxPoint x="650" y="-2.5" as="targetPoint" />
            <Array as="points">
              <mxPoint x="576" y="-2" />
            </Array>
          </mxGeometry>
        </mxCell>
        <mxCell id="u46jIXAhvoMnPUE3ka4g-47" value="data_nasc" style="ellipse;shape=doubleEllipse;margin=3;whiteSpace=wrap;html=1;align=center;" vertex="1" parent="1">
          <mxGeometry x="646" y="-17" width="80" height="30" as="geometry" />
        </mxCell>
        <mxCell id="u46jIXAhvoMnPUE3ka4g-49" value="nome" style="ellipse;whiteSpace=wrap;html=1;align=center;" vertex="1" parent="1">
          <mxGeometry x="650" y="-54.5" width="70" height="30" as="geometry" />
        </mxCell>
        <mxCell id="u46jIXAhvoMnPUE3ka4g-50" value="" style="endArrow=none;html=1;rounded=0;exitX=0.25;exitY=0;exitDx=0;exitDy=0;entryX=0;entryY=0.5;entryDx=0;entryDy=0;" edge="1" parent="1" target="u46jIXAhvoMnPUE3ka4g-49" source="V23KG6YPVm5Pd8DgJK21-4">
          <mxGeometry width="50" height="50" relative="1" as="geometry">
            <mxPoint x="601" y="13" as="sourcePoint" />
            <mxPoint x="340" y="430.5" as="targetPoint" />
            <Array as="points">
              <mxPoint x="550" y="-39" />
            </Array>
          </mxGeometry>
        </mxCell>
        <mxCell id="u46jIXAhvoMnPUE3ka4g-51" value="id_prof" style="ellipse;whiteSpace=wrap;html=1;align=center;" vertex="1" parent="1">
          <mxGeometry x="650" y="92.5" width="70" height="30" as="geometry" />
        </mxCell>
        <mxCell id="u46jIXAhvoMnPUE3ka4g-52" value="" style="endArrow=none;html=1;rounded=0;entryX=0;entryY=0.5;entryDx=0;entryDy=0;exitX=1;exitY=0.5;exitDx=0;exitDy=0;" edge="1" parent="1" target="u46jIXAhvoMnPUE3ka4g-51" source="V23KG6YPVm5Pd8DgJK21-4">
          <mxGeometry width="50" height="50" relative="1" as="geometry">
            <mxPoint x="650" y="100" as="sourcePoint" />
            <mxPoint x="340" y="585" as="targetPoint" />
            <Array as="points" />
          </mxGeometry>
        </mxCell>
        <mxCell id="u46jIXAhvoMnPUE3ka4g-56" value="id_turma" style="ellipse;whiteSpace=wrap;html=1;align=center;" vertex="1" parent="1">
          <mxGeometry x="663" y="412.5" width="70" height="30" as="geometry" />
        </mxCell>
        <mxCell id="u46jIXAhvoMnPUE3ka4g-57" value="" style="endArrow=none;html=1;rounded=0;exitX=1;exitY=1;exitDx=0;exitDy=0;entryX=0;entryY=0.5;entryDx=0;entryDy=0;" edge="1" parent="1" target="u46jIXAhvoMnPUE3ka4g-56" source="V23KG6YPVm5Pd8DgJK21-5">
          <mxGeometry width="50" height="50" relative="1" as="geometry">
            <mxPoint x="628" y="427.5" as="sourcePoint" />
            <mxPoint x="693" y="227.5" as="targetPoint" />
            <Array as="points">
              <mxPoint x="625" y="428" />
            </Array>
          </mxGeometry>
        </mxCell>
        <mxCell id="u46jIXAhvoMnPUE3ka4g-60" value="doutor" style="ellipse;whiteSpace=wrap;html=1;align=center;" vertex="1" parent="1">
          <mxGeometry x="750" y="21.25" width="70" height="30" as="geometry" />
        </mxCell>
        <mxCell id="u46jIXAhvoMnPUE3ka4g-61" value="mestre" style="ellipse;whiteSpace=wrap;html=1;align=center;" vertex="1" parent="1">
          <mxGeometry x="760" y="57.5" width="70" height="30" as="geometry" />
        </mxCell>
        <mxCell id="u46jIXAhvoMnPUE3ka4g-62" value="especialista" style="ellipse;whiteSpace=wrap;html=1;align=center;" vertex="1" parent="1">
          <mxGeometry x="760" y="94.5" width="70" height="27.5" as="geometry" />
        </mxCell>
        <mxCell id="u46jIXAhvoMnPUE3ka4g-65" value="" style="endArrow=none;html=1;rounded=0;exitX=1;exitY=0.5;exitDx=0;exitDy=0;entryX=0;entryY=0.5;entryDx=0;entryDy=0;" edge="1" parent="1" target="u46jIXAhvoMnPUE3ka4g-60">
          <mxGeometry width="50" height="50" relative="1" as="geometry">
            <mxPoint x="720" y="72.5" as="sourcePoint" />
            <mxPoint x="782" y="20" as="targetPoint" />
            <Array as="points">
              <mxPoint x="750" y="73" />
            </Array>
          </mxGeometry>
        </mxCell>
        <mxCell id="u46jIXAhvoMnPUE3ka4g-66" value="" style="endArrow=none;html=1;rounded=0;exitX=1;exitY=0.5;exitDx=0;exitDy=0;entryX=0;entryY=0.5;entryDx=0;entryDy=0;" edge="1" parent="1" target="u46jIXAhvoMnPUE3ka4g-62">
          <mxGeometry width="50" height="50" relative="1" as="geometry">
            <mxPoint x="720" y="72.5" as="sourcePoint" />
            <mxPoint x="760" y="46.25" as="targetPoint" />
            <Array as="points">
              <mxPoint x="750" y="73" />
              <mxPoint x="750" y="108" />
            </Array>
          </mxGeometry>
        </mxCell>
        <mxCell id="u46jIXAhvoMnPUE3ka4g-67" value="" style="endArrow=none;html=1;rounded=0;exitX=1;exitY=0.5;exitDx=0;exitDy=0;entryX=0;entryY=0.5;entryDx=0;entryDy=0;" edge="1" parent="1" target="u46jIXAhvoMnPUE3ka4g-61">
          <mxGeometry width="50" height="50" relative="1" as="geometry">
            <mxPoint x="720" y="72.5" as="sourcePoint" />
            <mxPoint x="770" y="56.25" as="targetPoint" />
            <Array as="points" />
          </mxGeometry>
        </mxCell>
        <mxCell id="u46jIXAhvoMnPUE3ka4g-68" value="graduado" style="ellipse;whiteSpace=wrap;html=1;align=center;" vertex="1" parent="1">
          <mxGeometry x="750" y="130" width="70" height="30" as="geometry" />
        </mxCell>
        <mxCell id="u46jIXAhvoMnPUE3ka4g-69" value="" style="endArrow=none;html=1;rounded=0;exitX=1;exitY=0.5;exitDx=0;exitDy=0;entryX=0;entryY=0.5;entryDx=0;entryDy=0;" edge="1" parent="1" target="u46jIXAhvoMnPUE3ka4g-68">
          <mxGeometry width="50" height="50" relative="1" as="geometry">
            <mxPoint x="720" y="72.5" as="sourcePoint" />
            <mxPoint x="770" y="118.25" as="targetPoint" />
            <Array as="points">
              <mxPoint x="750" y="73" />
              <mxPoint x="750" y="120" />
            </Array>
          </mxGeometry>
        </mxCell>
        <mxCell id="u46jIXAhvoMnPUE3ka4g-70" value="titulaÃ§Ã£o" style="ellipse;shape=doubleEllipse;margin=3;whiteSpace=wrap;html=1;align=center;" vertex="1" parent="1">
          <mxGeometry x="645" y="57.5" width="80" height="30" as="geometry" />
        </mxCell>
        <mxCell id="u46jIXAhvoMnPUE3ka4g-71" value="rua" style="ellipse;whiteSpace=wrap;html=1;rounded=0;" vertex="1" parent="1">
          <mxGeometry y="442.5" width="70" height="30" as="geometry" />
        </mxCell>
        <mxCell id="u46jIXAhvoMnPUE3ka4g-72" value="bairro" style="ellipse;whiteSpace=wrap;html=1;rounded=0;" vertex="1" parent="1">
          <mxGeometry x="82.5" y="442.5" width="70" height="30" as="geometry" />
        </mxCell>
        <mxCell id="u46jIXAhvoMnPUE3ka4g-73" value="numero" style="ellipse;whiteSpace=wrap;html=1;rounded=0;" vertex="1" parent="1">
          <mxGeometry x="40" y="477" width="70" height="30" as="geometry" />
        </mxCell>
        <mxCell id="u46jIXAhvoMnPUE3ka4g-75" value="" style="endArrow=none;html=1;rounded=0;entryX=0.5;entryY=1;entryDx=0;entryDy=0;exitX=0.5;exitY=0;exitDx=0;exitDy=0;" edge="1" parent="1" source="u46jIXAhvoMnPUE3ka4g-73" target="u46jIXAhvoMnPUE3ka4g-31">
          <mxGeometry width="50" height="50" relative="1" as="geometry">
            <mxPoint x="79" y="470" as="sourcePoint" />
            <mxPoint x="127.5" y="437.5" as="targetPoint" />
            <Array as="points" />
          </mxGeometry>
        </mxCell>
        <mxCell id="u46jIXAhvoMnPUE3ka4g-76" value="" style="endArrow=none;html=1;rounded=0;entryX=0.5;entryY=1;entryDx=0;entryDy=0;exitX=0.5;exitY=0;exitDx=0;exitDy=0;" edge="1" parent="1" source="u46jIXAhvoMnPUE3ka4g-71" target="u46jIXAhvoMnPUE3ka4g-31">
          <mxGeometry width="50" height="50" relative="1" as="geometry">
            <mxPoint x="85" y="500" as="sourcePoint" />
            <mxPoint x="85" y="415" as="targetPoint" />
            <Array as="points">
              <mxPoint x="35" y="405" />
            </Array>
          </mxGeometry>
        </mxCell>
        <mxCell id="u46jIXAhvoMnPUE3ka4g-77" value="" style="endArrow=none;html=1;rounded=0;entryX=0.5;entryY=1;entryDx=0;entryDy=0;exitX=0.5;exitY=0;exitDx=0;exitDy=0;" edge="1" parent="1" source="u46jIXAhvoMnPUE3ka4g-72" target="u46jIXAhvoMnPUE3ka4g-31">
          <mxGeometry width="50" height="50" relative="1" as="geometry">
            <mxPoint x="45" y="452.5" as="sourcePoint" />
            <mxPoint x="85" y="415" as="targetPoint" />
            <Array as="points">
              <mxPoint x="118" y="405" />
            </Array>
          </mxGeometry>
        </mxCell>
        <mxCell id="u46jIXAhvoMnPUE3ka4g-78" value="id_curso" style="ellipse;whiteSpace=wrap;html=1;align=center;" vertex="1" parent="1">
          <mxGeometry x="20" y="21.25" width="70" height="30" as="geometry" />
        </mxCell>
        <mxCell id="u46jIXAhvoMnPUE3ka4g-79" value="" style="endArrow=none;html=1;rounded=0;exitX=0;exitY=0.5;exitDx=0;exitDy=0;entryX=0.5;entryY=1;entryDx=0;entryDy=0;" edge="1" parent="1" target="u46jIXAhvoMnPUE3ka4g-78" source="V23KG6YPVm5Pd8DgJK21-2">
          <mxGeometry width="50" height="50" relative="1" as="geometry">
            <mxPoint x="55" y="88.75" as="sourcePoint" />
            <mxPoint x="155" y="81.25" as="targetPoint" />
            <Array as="points">
              <mxPoint x="55" y="108" />
            </Array>
          </mxGeometry>
        </mxCell>
      </root>
    </mxGraphModel>
  </diagram>
</mxfile>
